<svg width="136" height="25" viewBox="0 0 136 25" fill="none" xmlns="http://www.w3.org/2000/svg">
<g clip-path="url(#clip0_44_765)">
<path d="M8.86211 10.5638L14.1116 5.74401L19.3638 10.5664L22.4183 7.76176L14.1116 0.134399L5.80762 7.75921L8.86211 10.5638Z" fill="#6B8CCE" fill-opacity="0.2"/>
<path d="M6.70483 12.5436L3.65039 9.73907L0.595798 12.5438L3.65024 15.3483L6.70483 12.5436Z" fill="#6B8CCE" fill-opacity="0.2"/>
<path d="M8.86269 14.5246L14.1121 19.3444L19.3642 14.5223L22.4204 17.3253L22.4189 17.3269L14.1121 24.9541L5.80798 17.3294L5.80371 17.3255L8.86269 14.5246Z" fill="#6B8CCE" fill-opacity="0.2"/>
<path d="M24.5733 15.3497L27.6279 12.545L24.5735 9.74042L21.5189 12.5451L24.5733 15.3497Z" fill="#6B8CCE" fill-opacity="0.2"/>
<path d="M17.21 12.5426H17.2113L14.1118 9.69666L11.8212 11.7999H11.821L11.5579 12.0416L11.015 12.5401L11.0107 12.544L11.015 12.5481L14.1118 15.3915L17.2113 12.5456L17.2128 12.544L17.21 12.5426Z" fill="#6B8CCE" fill-opacity="0.2"/>
<path d="M32.3896 6.14844H39.033C40.6818 6.14844 41.9287 6.53697 42.7737 7.31404C43.4276 7.91585 43.7545 8.66175 43.7545 9.55153V9.58917C43.7545 9.96515 43.7039 10.2974 43.6021 10.5856C43.5004 10.8741 43.3646 11.1339 43.1949 11.3658C43.0256 11.5979 42.8288 11.8016 42.605 11.9768C42.3811 12.1525 42.1405 12.303 41.8828 12.4281C42.7116 12.7166 43.364 13.1081 43.8397 13.6033C44.3151 14.0987 44.5532 14.785 44.5532 15.6622V15.6996C44.5532 16.3015 44.4272 16.8278 44.1751 17.2793C43.9229 17.7303 43.5617 18.1065 43.0914 18.4074C42.621 18.7083 42.0555 18.9338 41.3945 19.0843C40.7335 19.2347 40.001 19.3097 39.1972 19.3097H32.3896V6.14844ZM38.3688 11.4693C39.0653 11.4693 39.6182 11.3599 40.0275 11.1404C40.437 10.921 40.6417 10.5668 40.6417 10.0781V10.0404C40.6417 9.60191 40.4641 9.2667 40.1093 9.0346C39.7542 8.80269 39.2422 8.68664 38.5736 8.68664H35.461V11.4693H38.3688ZM39.2085 16.7717C39.9047 16.7717 40.4504 16.6561 40.8467 16.424C41.2425 16.1921 41.4406 15.8316 41.4406 15.3427V15.3052C41.4406 14.8665 41.2562 14.5188 40.8877 14.2616C40.5189 14.005 39.9252 13.8764 39.106 13.8764H35.461V16.7719H39.2085V16.7717Z" fill="#6B8CCE" fill-opacity="0.2"/>
<path d="M48.5098 6.14844H51.6635V19.3101H48.5098V6.14844Z" fill="#6B8CCE" fill-opacity="0.2"/>
<path d="M56.4395 6.14844H59.3469L66.0637 14.2523V6.14844H69.1762V19.3101H66.4939L59.5518 10.9432V19.3101H56.4395V6.14844Z" fill="#6B8CCE" fill-opacity="0.2"/>
<path d="M78.7239 6.0545H81.6315L87.7751 19.3101H84.4781L83.1674 16.3583H77.106L75.7956 19.3101H72.5801L78.7239 6.0545ZM82.0412 13.8009L80.1366 9.53287L78.2326 13.8009H82.0412Z" fill="#6B8CCE" fill-opacity="0.2"/>
<path d="M91.1797 6.14844H94.0877L100.804 14.2523V6.14844H103.917V19.3101H101.234L94.2922 10.9432V19.3101H91.1797V6.14844Z" fill="#6B8CCE" fill-opacity="0.2"/>
<path d="M115.266 19.5356C114.214 19.5356 113.238 19.3599 112.337 19.0092C111.436 18.6585 110.658 18.1788 110.003 17.5707C109.347 16.9628 108.835 16.2452 108.467 15.4179C108.098 14.5905 107.914 13.7068 107.914 12.7666V12.7292C107.914 11.789 108.098 10.9086 108.467 10.0875C108.835 9.26649 109.347 8.54568 110.003 7.92524C110.658 7.30481 111.443 6.81571 112.357 6.45854C113.272 6.10137 114.283 5.92279 115.388 5.92279C116.057 5.92279 116.668 5.97317 117.221 6.07315C117.774 6.17371 118.275 6.31132 118.726 6.48677C119.177 6.66241 119.593 6.8755 119.975 7.12603C120.357 7.37695 120.712 7.65257 121.04 7.95347L119.033 10.0781C118.473 9.61444 117.903 9.25061 117.323 8.98753C116.743 8.72446 116.091 8.59273 115.368 8.59273C114.767 8.59273 114.21 8.69937 113.699 8.91246C113.187 9.12554 112.747 9.41998 112.378 9.79597C112.01 10.172 111.723 10.6077 111.518 11.1027C111.313 11.5981 111.211 12.1276 111.211 12.6915V12.729C111.211 13.293 111.313 13.826 111.518 14.327C111.723 14.8287 112.006 15.2672 112.368 15.6432C112.729 16.0192 113.166 16.3171 113.678 16.5365C114.19 16.756 114.753 16.8654 115.368 16.8654C116.187 16.8654 116.879 16.7276 117.446 16.4518C118.012 16.1764 118.576 15.8002 119.135 15.3236L121.142 17.1851C120.774 17.5488 120.391 17.8748 119.996 18.1628C119.6 18.4513 119.166 18.6987 118.695 18.9057C118.224 19.1123 117.708 19.2693 117.149 19.3756C116.589 19.482 115.961 19.5356 115.266 19.5356Z" fill="#6B8CCE" fill-opacity="0.2"/>
<path d="M124.854 6.14844H135.646V8.72448H127.967V11.3944H134.725V13.9703H127.967V16.7343H135.749V19.3101H124.854V6.14844Z" fill="#6B8CCE" fill-opacity="0.2"/>
</g>
<defs>
<clipPath id="clip0_44_765">
<rect width="134.933" height="24.8196" fill="white" transform="translate(0.712891 0.134399)"/>
</clipPath>
</defs>
</svg>
