<svg width="171" height="25" viewBox="0 0 171 25" fill="none" xmlns="http://www.w3.org/2000/svg">
<path fill-rule="evenodd" clip-rule="evenodd" d="M32.2332 6.49469V13.5787H25.0646V7.40597C25.0646 6.90268 24.6459 6.49469 24.1295 6.49469H21.71V23.376C21.71 23.8794 22.1285 24.2875 22.6451 24.2875H25.0646V16.4357H32.2332V23.376C32.2332 23.8794 32.6517 24.2875 33.1683 24.2875H35.5877V7.40597C35.5877 6.90268 35.1691 6.49469 34.6525 6.49469H32.2332Z" fill="#6B8CCE" fill-opacity="0.5"/>
<path fill-rule="evenodd" clip-rule="evenodd" d="M46.3042 10.6895V19.1211C46.3042 19.8872 45.9034 20.6135 45.2228 20.9967C43.3233 22.0665 41.3575 20.7302 41.3575 18.9682V11.6008C41.3575 11.0975 40.9389 10.6895 40.4224 10.6895H37.9932V19.2686C37.9932 22.0291 40.3103 24.2875 43.1424 24.2875H44.5193C47.3515 24.2875 49.6686 22.0291 49.6686 19.2686V11.6008C49.6686 11.0975 49.2501 10.6895 48.7337 10.6895H46.3042Z" fill="#6B8CCE" fill-opacity="0.5"/>
<path fill-rule="evenodd" clip-rule="evenodd" d="M83.6176 24.2874H86.0372V12.3474C86.0372 11.8439 85.6183 11.4359 85.102 11.4359H82.6826V23.3759C82.6826 23.8795 83.1012 24.2874 83.6176 24.2874Z" fill="#6B8CCE" fill-opacity="0.5"/>
<path fill-rule="evenodd" clip-rule="evenodd" d="M84.3604 10.1422C85.3944 10.1422 86.2326 9.32513 86.2326 8.31732C86.2326 7.3095 85.3944 6.49268 84.3604 6.49268C83.3263 6.49268 82.4883 7.3095 82.4883 8.31732C82.4883 9.32513 83.3263 10.1422 84.3604 10.1422Z" fill="#6B8CCE" fill-opacity="0.5"/>
<path fill-rule="evenodd" clip-rule="evenodd" d="M61.4745 18.6416C61.4745 20.2637 60.113 21.3435 58.4487 21.3435C56.7843 21.3435 55.4227 20.2637 55.4227 18.6416V16.3267C55.4227 14.7045 56.7843 13.6247 58.4487 13.6247C60.113 13.6247 61.4745 14.7045 61.4745 16.3267V18.6416ZM58.4487 10.681C54.9298 10.681 52.0508 13.1343 52.0508 16.5639V18.4189C52.0508 21.8485 54.9298 24.2873 58.4487 24.2873C61.9673 24.2873 64.8466 21.8485 64.8466 18.4189V16.5639C64.8466 13.1343 61.9673 10.681 58.4487 10.681Z" fill="#6B8CCE" fill-opacity="0.5"/>
<path fill-rule="evenodd" clip-rule="evenodd" d="M76.7013 18.6416C76.7013 20.2639 75.3396 21.3437 73.6752 21.3437C72.0111 21.3437 70.6492 20.2639 70.6492 18.6416V16.3269C70.6492 14.7046 72.0111 13.6248 73.6752 13.6248C75.3396 13.6248 76.7013 14.7046 76.7013 16.3269V18.6416ZM73.6752 10.6811C72.5754 10.6811 71.5385 10.9208 70.6321 11.355V7.39073C70.6321 6.88724 70.2133 6.47925 69.697 6.47925H67.2773V18.4191C67.2773 21.8488 70.1565 24.2875 73.6752 24.2875C77.1941 24.2875 80.0731 21.8488 80.0731 18.4191V16.5641C80.0731 13.1345 77.1941 10.6811 73.6752 10.6811Z" fill="#6B8CCE" fill-opacity="0.5"/>
<path fill-rule="evenodd" clip-rule="evenodd" d="M143.592 18.6981C143.592 20.3035 142.245 21.3723 140.598 21.3723C138.95 21.3723 137.602 20.3035 137.602 18.6981V16.407C137.602 14.8017 138.95 13.733 140.598 13.733C142.245 13.733 143.592 14.8017 143.592 16.407V18.6981ZM140.598 10.8196C139.51 10.8196 138.482 11.0565 137.586 11.4861V7.39374C137.586 6.89565 137.172 6.49182 136.66 6.49182H134.266V18.4779C134.266 21.8722 137.115 24.2856 140.598 24.2856C144.08 24.2856 146.929 21.8722 146.929 18.4779V16.6417C146.929 13.2475 144.08 10.8196 140.598 10.8196Z" fill="#6B8CCE" fill-opacity="0.5"/>
<path fill-rule="evenodd" clip-rule="evenodd" d="M170.473 24.2246V22.1715C170.473 21.6855 170.069 21.292 169.571 21.2937C169.066 21.2954 168.433 21.297 167.899 21.297C166.536 21.297 166.599 20.6329 166.599 18.9111V7.38446C166.599 6.89949 166.196 6.50647 165.699 6.50647H163.242V19.3047C163.242 22.404 164.063 24.2246 167.495 24.2246C168.821 24.2246 169.783 24.1879 170.473 24.2248V24.2246Z" fill="#6B8CCE" fill-opacity="0.5"/>
<path fill-rule="evenodd" clip-rule="evenodd" d="M106.179 13.6533H99.6874V15.3772C99.6874 15.8955 100.118 16.3156 100.65 16.3156H103.733V17.8398C103.733 18.9643 103.445 19.7942 102.85 20.3791C102.119 21.1147 101.107 21.5034 99.9251 21.5034C98.8598 21.5034 97.8456 21.1439 97.2129 20.542C96.3333 19.7016 96.1437 18.7891 96.1437 15.4018C96.1437 12.0339 96.3333 11.1255 97.2125 10.286C97.8616 9.66866 99.1274 9.20159 100.177 9.20159C103.725 9.20159 104.917 10.4291 105.806 11.5468H105.923V9.04742C105.923 8.67791 105.742 8.33255 105.445 8.10181C103.959 6.94212 102.477 6.51831 99.9251 6.51831C97.8641 6.51831 96.1018 7.14954 94.6876 8.39434C92.7347 10.1131 92.7349 12.0524 92.7354 15.2651V15.5385C92.7349 18.7512 92.7347 20.6903 94.6876 22.409C96.0822 23.6368 97.8935 24.2855 99.9251 24.2855C102.059 24.2855 103.938 23.5854 105.357 22.2612L105.358 22.2607C106.625 21.0748 107.141 18.8038 107.141 16.4423V14.5915C107.141 14.0734 106.71 13.6533 106.179 13.6533Z" fill="#6B8CCE" fill-opacity="0.5"/>
<path fill-rule="evenodd" clip-rule="evenodd" d="M116.756 24.2246V22.1715C116.756 21.6855 116.352 21.292 115.853 21.2937C115.349 21.2954 114.716 21.297 114.181 21.297C112.818 21.297 112.882 20.6329 112.882 18.9111V7.38446C112.882 6.89949 112.479 6.50647 111.981 6.50647H109.525V19.3047C109.525 22.404 110.345 24.2246 113.777 24.2246C115.104 24.2246 116.066 24.1879 116.755 24.2248L116.756 24.2246Z" fill="#6B8CCE" fill-opacity="0.5"/>
<path fill-rule="evenodd" clip-rule="evenodd" d="M128.504 18.698C128.504 20.3034 127.157 21.3722 125.51 21.3722C123.863 21.3722 122.516 20.3034 122.516 18.698V16.407C122.516 14.8017 123.863 13.7329 125.51 13.7329C127.157 13.7329 128.504 14.8017 128.504 16.407V18.698ZM125.51 10.8195C122.028 10.8195 119.178 13.2475 119.178 16.6417V18.4777C119.178 21.8722 122.028 24.2855 125.51 24.2855C128.993 24.2855 131.842 21.8722 131.842 18.4777V16.6417C131.842 13.2475 128.993 10.8195 125.51 10.8195Z" fill="#6B8CCE" fill-opacity="0.5"/>
<path fill-rule="evenodd" clip-rule="evenodd" d="M157.521 18.1901V21.569C157.263 21.6178 156.977 21.6567 156.667 21.6844C155.907 21.7541 155.226 21.7668 154.436 21.6967C154.127 21.6694 153.84 21.5925 153.587 21.4697C153.341 21.3505 153.14 21.1811 152.973 20.9514C152.815 20.7339 152.735 20.4124 152.735 19.9961C152.735 19.3476 152.971 18.8832 153.46 18.5759C153.98 18.2486 154.767 18.0824 155.801 18.0824C156.079 18.0824 156.419 18.098 156.821 18.129C157.083 18.1494 157.318 18.1698 157.521 18.1901ZM159.317 11.9639C158.322 11.1894 156.867 10.7968 154.992 10.7968C154.296 10.7968 153.563 10.8463 152.815 10.9436C152.216 11.0217 151.366 11.1334 150.777 11.2657C150.539 11.3194 150.494 11.5023 150.494 11.7213V13.4679C150.494 13.7792 150.498 14.0624 150.836 13.982C151.467 13.8322 152.69 13.568 153.023 13.5146C153.548 13.4303 154.121 13.3878 154.724 13.3878C155.663 13.3878 156.378 13.5516 156.851 13.8734C157.296 14.1768 157.521 14.7542 157.521 15.5893V15.6904C157.354 15.6754 157.171 15.661 156.971 15.648C156.596 15.6233 156.117 15.6109 155.531 15.6109C154.733 15.6109 153.959 15.6992 153.233 15.8732C152.495 16.0505 151.832 16.3243 151.261 16.6878C150.681 17.0586 150.215 17.529 149.877 18.0874C149.537 18.6497 149.364 19.3084 149.364 20.0441C149.364 20.7914 149.512 21.442 149.803 21.9773C150.096 22.5175 150.519 22.9679 151.058 23.3155C151.587 23.6588 152.238 23.9097 152.99 24.0625C153.72 24.2106 154.549 24.2857 155.451 24.2857C156.107 24.2857 160.837 24.2208 160.837 22.0269C160.837 19.4846 160.837 15.6847 160.837 15.6847C160.837 14.0018 160.326 12.7499 159.317 11.9639Z" fill="#6B8CCE" fill-opacity="0.5"/>
<path fill-rule="evenodd" clip-rule="evenodd" d="M11.6649 7.72967C11.6649 4.1865 9.89401 1.13955 8.54707 0.147337C8.54151 0.144216 8.44396 0.0907463 8.45229 0.232431L8.45037 0.2368C8.33851 7.07784 4.75279 8.93201 2.78148 11.4297C-1.76781 17.1936 2.46299 23.5131 6.77128 24.6811C9.1819 25.3346 6.21457 23.5248 5.83248 19.7019C5.37034 15.0814 11.6649 11.5546 11.6649 7.72967Z" fill="#6B8CCE" fill-opacity="0.5"/>
<path fill-rule="evenodd" clip-rule="evenodd" d="M13.7319 10.059C13.7043 10.0407 13.665 10.0282 13.638 10.0719C13.5639 10.933 12.6613 12.7751 11.5174 14.4666C7.63755 20.2041 9.84858 22.97 11.0918 24.4555C11.8137 25.3178 11.0918 24.4555 12.8962 23.5742C13.0375 23.5052 16.4168 21.658 16.7827 17.4495C17.137 13.3741 14.6256 10.8053 13.7319 10.059Z" fill="#6B8CCE" fill-opacity="0.5"/>
</svg>
