<svg width="0" height="0" class="hidden">
  <symbol fill="#fff" xmlns="http://www.w3.org/2000/svg" viewBox="0 0 20 21" id="account_icon">
    <g clip-path="url(#clip0_370_4664)">
      <path d="M20 10.74C20 5.225 15.52 0.75 10 0.75C4.48 0.75 0 5.225 0 10.74C0 13.7775 1.38 16.515 3.54 18.3525C3.56 18.3725 3.58 18.3725 3.58 18.3925C3.76 18.5325 3.94 18.6725 4.14 18.8125C4.24 18.8725 4.32 18.9512 4.42 19.0312C6.07258 20.1517 8.02339 20.7504 10.02 20.75C12.0166 20.7504 13.9674 20.1517 15.62 19.0312C15.72 18.9712 15.8 18.8925 15.9 18.8313C16.08 18.6925 16.28 18.5525 16.46 18.4125C16.48 18.3925 16.5 18.3925 16.5 18.3725C18.62 16.5137 20 13.7775 20 10.74V10.74ZM10 19.4913C8.12 19.4913 6.4 18.8912 4.98 17.8925C5 17.7325 5.04 17.5738 5.08 17.4138C5.19917 16.9801 5.37396 16.5638 5.6 16.175C5.82 15.795 6.08 15.455 6.4 15.155C6.7 14.855 7.06 14.5763 7.42 14.3563C7.8 14.1363 8.2 13.9762 8.64 13.8562C9.08342 13.7367 9.54075 13.6766 10 13.6775C11.3633 13.6678 12.6765 14.1908 13.66 15.135C14.12 15.595 14.48 16.135 14.74 16.7538C14.88 17.1138 14.98 17.4937 15.04 17.8925C13.564 18.9302 11.8043 19.4884 10 19.4913ZM6.94 10.2412C6.76378 9.83777 6.67516 9.4015 6.68 8.96125C6.68 8.5225 6.76 8.0825 6.94 7.6825C7.12 7.2825 7.36 6.92375 7.66 6.62375C7.96 6.32375 8.32 6.085 8.72 5.905C9.12 5.725 9.56 5.645 10 5.645C10.46 5.645 10.88 5.725 11.28 5.905C11.68 6.085 12.04 6.325 12.34 6.62375C12.64 6.92375 12.88 7.28375 13.06 7.6825C13.24 8.0825 13.32 8.5225 13.32 8.96125C13.32 9.42125 13.24 9.84125 13.06 10.24C12.8863 10.6341 12.6423 10.9933 12.34 11.3C12.0332 11.6019 11.674 11.8454 11.28 12.0188C10.4535 12.3584 9.52647 12.3584 8.7 12.0188C8.30601 11.8454 7.94684 11.6019 7.64 11.3C7.33727 10.9977 7.09912 10.6371 6.94 10.24V10.2412ZM16.22 16.8738C16.22 16.8338 16.2 16.8138 16.2 16.7738C16.0033 16.148 15.7134 15.5555 15.34 15.0163C14.9663 14.473 14.507 13.9938 13.98 13.5975C13.5775 13.2947 13.1413 13.0397 12.68 12.8375C12.8899 12.6991 13.0843 12.5386 13.26 12.3587C13.5582 12.0644 13.82 11.7354 14.04 11.3788C14.4829 10.651 14.7117 9.81311 14.7 8.96125C14.7062 8.33064 14.5837 7.7054 14.34 7.12375C14.0994 6.5633 13.7531 6.05445 13.32 5.625C12.8876 5.20004 12.3786 4.86074 11.82 4.625C11.2374 4.38174 10.6113 4.25968 9.98 4.26625C9.34859 4.26007 8.72253 4.38256 8.14 4.62625C7.57657 4.86148 7.06639 5.20798 6.64 5.645C6.21505 6.07698 5.87574 6.58552 5.64 7.14375C5.39631 7.7254 5.27381 8.35064 5.28 8.98125C5.28 9.42125 5.34 9.84125 5.46 10.24C5.58 10.66 5.74 11.04 5.96 11.3988C6.16 11.7588 6.44 12.0788 6.74 12.3788C6.92 12.5588 7.12 12.7175 7.34 12.8575C6.87729 13.0651 6.4409 13.3269 6.04 13.6375C5.52 14.0375 5.06 14.5162 4.68 15.0362C4.30282 15.5733 4.0126 16.1664 3.82 16.7938C3.8 16.8338 3.8 16.8737 3.8 16.8937C2.22 15.295 1.24 13.1375 1.24 10.74C1.24 5.925 5.18 1.98875 10 1.98875C14.82 1.98875 18.76 5.925 18.76 10.74C18.7574 13.0399 17.8441 15.2453 16.22 16.8738V16.8738Z" fill="#fff"></path>
    </g>
    <defs>
      <clipPath id="clip0_370_4664">
        <rect width="20" height="20" fill="white" transform="translate(0 0.75)"></rect>
      </clipPath>
    </defs>
  </symbol>
  <symbol fill="none" xmlns="http://www.w3.org/2000/svg" viewBox="0 0 19 19" id="language_icon">
    <path d="M9.49967 17.4167C13.8719 17.4167 17.4163 13.8723 17.4163 9.50004C17.4163 5.12778 13.8719 1.58337 9.49967 1.58337C5.12742 1.58337 1.58301 5.12778 1.58301 9.50004C1.58301 13.8723 5.12742 17.4167 9.49967 17.4167Z" stroke="white" stroke-linecap="round" stroke-linejoin="round"></path>
    <path d="M1.58301 9.5H17.4163" stroke="white" stroke-linecap="round" stroke-linejoin="round"></path>
    <path d="M9.49967 17.4167C11.2486 17.4167 12.6663 13.8723 12.6663 9.50004C12.6663 5.12778 11.2486 1.58337 9.49967 1.58337C7.75076 1.58337 6.33301 5.12778 6.33301 9.50004C6.33301 13.8723 7.75076 17.4167 9.49967 17.4167Z" stroke="white" stroke-linecap="round" stroke-linejoin="round"></path>
    <path d="M3.90137 4.01465C5.334 5.44729 7.31317 6.3334 9.49928 6.3334C11.6854 6.3334 13.6646 5.44729 15.0972 4.01465" stroke="white" stroke-linecap="round" stroke-linejoin="round"></path>
    <path d="M15.0972 14.9855C13.6646 13.5529 11.6854 12.6667 9.49928 12.6667C7.31317 12.6667 5.334 13.5529 3.90137 14.9855" stroke="white" stroke-linecap="round" stroke-linejoin="round"></path>
  </symbol>
  <symbol fill="none" xmlns="http://www.w3.org/2000/svg" viewBox="0 0 73 67" id="messages_icon">
    <path d="M21.17 41.5299V18.8999H7.3C3.285 18.8999 0 22.1849 0 26.1999V48.0999C0 52.1149 3.285 55.3999 7.3 55.3999H10.95V66.3499L21.9 55.3999H40.15C44.165 55.3999 47.45 52.1149 47.45 48.0999V41.4569C47.2101 41.5084 46.9654 41.5341 46.72 41.5336H21.17V41.5299ZM65.7 0.649902H32.85C28.835 0.649902 25.55 3.9349 25.55 7.9499V37.1499H51.1L62.05 48.0999V37.1499H65.7C69.715 37.1499 73 33.8686 73 29.8499V7.9499C73 3.9349 69.715 0.649902 65.7 0.649902Z" fill="url(#paint0_linear_51_1094)"></path>
    <defs>
      <linearGradient id="paint0_linear_51_1094" x1="0" y1="33.4999" x2="73" y2="33.4999" gradientUnits="userSpaceOnUse">
        <stop stop-color="#0C3483"></stop>
        <stop offset="1" stop-color="#A2B6DF"></stop>
        <stop offset="1" stop-color="#6B8CCE"></stop>
      </linearGradient>
    </defs>
  </symbol>
  <symbol fill="none" xmlns="http://www.w3.org/2000/svg" viewBox="0 0 136 25" id="binance">
    <g clip-path="url(#clip0_44_765)">
      <path d="M8.86211 10.5638L14.1116 5.74401L19.3638 10.5664L22.4183 7.76176L14.1116 0.134399L5.80762 7.75921L8.86211 10.5638Z" fill="#6B8CCE" fill-opacity="0.2"></path>
      <path d="M6.70483 12.5436L3.65039 9.73907L0.595798 12.5438L3.65024 15.3483L6.70483 12.5436Z" fill="#6B8CCE" fill-opacity="0.2"></path>
      <path d="M8.86269 14.5246L14.1121 19.3444L19.3642 14.5223L22.4204 17.3253L22.4189 17.3269L14.1121 24.9541L5.80798 17.3294L5.80371 17.3255L8.86269 14.5246Z" fill="#6B8CCE" fill-opacity="0.2"></path>
      <path d="M24.5733 15.3497L27.6279 12.545L24.5735 9.74042L21.5189 12.5451L24.5733 15.3497Z" fill="#6B8CCE" fill-opacity="0.2"></path>
      <path d="M17.21 12.5426H17.2113L14.1118 9.69666L11.8212 11.7999H11.821L11.5579 12.0416L11.015 12.5401L11.0107 12.544L11.015 12.5481L14.1118 15.3915L17.2113 12.5456L17.2128 12.544L17.21 12.5426Z" fill="#6B8CCE" fill-opacity="0.2"></path>
      <path d="M32.3896 6.14844H39.033C40.6818 6.14844 41.9287 6.53697 42.7737 7.31404C43.4276 7.91585 43.7545 8.66175 43.7545 9.55153V9.58917C43.7545 9.96515 43.7039 10.2974 43.6021 10.5856C43.5004 10.8741 43.3646 11.1339 43.1949 11.3658C43.0256 11.5979 42.8288 11.8016 42.605 11.9768C42.3811 12.1525 42.1405 12.303 41.8828 12.4281C42.7116 12.7166 43.364 13.1081 43.8397 13.6033C44.3151 14.0987 44.5532 14.785 44.5532 15.6622V15.6996C44.5532 16.3015 44.4272 16.8278 44.1751 17.2793C43.9229 17.7303 43.5617 18.1065 43.0914 18.4074C42.621 18.7083 42.0555 18.9338 41.3945 19.0843C40.7335 19.2347 40.001 19.3097 39.1972 19.3097H32.3896V6.14844ZM38.3688 11.4693C39.0653 11.4693 39.6182 11.3599 40.0275 11.1404C40.437 10.921 40.6417 10.5668 40.6417 10.0781V10.0404C40.6417 9.60191 40.4641 9.2667 40.1093 9.0346C39.7542 8.80269 39.2422 8.68664 38.5736 8.68664H35.461V11.4693H38.3688ZM39.2085 16.7717C39.9047 16.7717 40.4504 16.6561 40.8467 16.424C41.2425 16.1921 41.4406 15.8316 41.4406 15.3427V15.3052C41.4406 14.8665 41.2562 14.5188 40.8877 14.2616C40.5189 14.005 39.9252 13.8764 39.106 13.8764H35.461V16.7719H39.2085V16.7717Z" fill="#6B8CCE" fill-opacity="0.2"></path>
      <path d="M48.5098 6.14844H51.6635V19.3101H48.5098V6.14844Z" fill="#6B8CCE" fill-opacity="0.2"></path>
      <path d="M56.4395 6.14844H59.3469L66.0637 14.2523V6.14844H69.1762V19.3101H66.4939L59.5518 10.9432V19.3101H56.4395V6.14844Z" fill="#6B8CCE" fill-opacity="0.2"></path>
      <path d="M78.7239 6.0545H81.6315L87.7751 19.3101H84.4781L83.1674 16.3583H77.106L75.7956 19.3101H72.5801L78.7239 6.0545ZM82.0412 13.8009L80.1366 9.53287L78.2326 13.8009H82.0412Z" fill="#6B8CCE" fill-opacity="0.2"></path>
      <path d="M91.1797 6.14844H94.0877L100.804 14.2523V6.14844H103.917V19.3101H101.234L94.2922 10.9432V19.3101H91.1797V6.14844Z" fill="#6B8CCE" fill-opacity="0.2"></path>
      <path d="M115.266 19.5356C114.214 19.5356 113.238 19.3599 112.337 19.0092C111.436 18.6585 110.658 18.1788 110.003 17.5707C109.347 16.9628 108.835 16.2452 108.467 15.4179C108.098 14.5905 107.914 13.7068 107.914 12.7666V12.7292C107.914 11.789 108.098 10.9086 108.467 10.0875C108.835 9.26649 109.347 8.54568 110.003 7.92524C110.658 7.30481 111.443 6.81571 112.357 6.45854C113.272 6.10137 114.283 5.92279 115.388 5.92279C116.057 5.92279 116.668 5.97317 117.221 6.07315C117.774 6.17371 118.275 6.31132 118.726 6.48677C119.177 6.66241 119.593 6.8755 119.975 7.12603C120.357 7.37695 120.712 7.65257 121.04 7.95347L119.033 10.0781C118.473 9.61444 117.903 9.25061 117.323 8.98753C116.743 8.72446 116.091 8.59273 115.368 8.59273C114.767 8.59273 114.21 8.69937 113.699 8.91246C113.187 9.12554 112.747 9.41998 112.378 9.79597C112.01 10.172 111.723 10.6077 111.518 11.1027C111.313 11.5981 111.211 12.1276 111.211 12.6915V12.729C111.211 13.293 111.313 13.826 111.518 14.327C111.723 14.8287 112.006 15.2672 112.368 15.6432C112.729 16.0192 113.166 16.3171 113.678 16.5365C114.19 16.756 114.753 16.8654 115.368 16.8654C116.187 16.8654 116.879 16.7276 117.446 16.4518C118.012 16.1764 118.576 15.8002 119.135 15.3236L121.142 17.1851C120.774 17.5488 120.391 17.8748 119.996 18.1628C119.6 18.4513 119.166 18.6987 118.695 18.9057C118.224 19.1123 117.708 19.2693 117.149 19.3756C116.589 19.482 115.961 19.5356 115.266 19.5356Z" fill="#6B8CCE" fill-opacity="0.2"></path>
      <path d="M124.854 6.14844H135.646V8.72448H127.967V11.3944H134.725V13.9703H127.967V16.7343H135.749V19.3101H124.854V6.14844Z" fill="#6B8CCE" fill-opacity="0.2"></path>
    </g>
    <defs>
      <clipPath id="clip0_44_765">
        <rect width="134.933" height="24.8196" fill="white" transform="translate(0.712891 0.134399)"></rect>
      </clipPath>
    </defs>
  </symbol>
  <symbol fill="none" xmlns="http://www.w3.org/2000/svg" viewBox="0 0 16 12" id="check">
    <path d="M5.57656 11.2981L0.351562 6.07306L1.65781 4.76681L5.57656 8.68556L13.987 0.275146L15.2932 1.5814L5.57656 11.2981Z" fill="white"></path>
  </symbol>
  <symbol fill="none" xmlns="http://www.w3.org/2000/svg" viewBox="0 0 171 25" id="huobi">
    <path fill-rule="evenodd" clip-rule="evenodd" d="M32.2332 6.49469V13.5787H25.0646V7.40597C25.0646 6.90268 24.6459 6.49469 24.1295 6.49469H21.71V23.376C21.71 23.8794 22.1285 24.2875 22.6451 24.2875H25.0646V16.4357H32.2332V23.376C32.2332 23.8794 32.6517 24.2875 33.1683 24.2875H35.5877V7.40597C35.5877 6.90268 35.1691 6.49469 34.6525 6.49469H32.2332Z" fill="#6B8CCE" fill-opacity="0.5"></path>
    <path fill-rule="evenodd" clip-rule="evenodd" d="M46.3042 10.6895V19.1211C46.3042 19.8872 45.9034 20.6135 45.2228 20.9967C43.3233 22.0665 41.3575 20.7302 41.3575 18.9682V11.6008C41.3575 11.0975 40.9389 10.6895 40.4224 10.6895H37.9932V19.2686C37.9932 22.0291 40.3103 24.2875 43.1424 24.2875H44.5193C47.3515 24.2875 49.6686 22.0291 49.6686 19.2686V11.6008C49.6686 11.0975 49.2501 10.6895 48.7337 10.6895H46.3042Z" fill="#6B8CCE" fill-opacity="0.5"></path>
    <path fill-rule="evenodd" clip-rule="evenodd" d="M83.6176 24.2874H86.0372V12.3474C86.0372 11.8439 85.6183 11.4359 85.102 11.4359H82.6826V23.3759C82.6826 23.8795 83.1012 24.2874 83.6176 24.2874Z" fill="#6B8CCE" fill-opacity="0.5"></path>
    <path fill-rule="evenodd" clip-rule="evenodd" d="M84.3604 10.1422C85.3944 10.1422 86.2326 9.32513 86.2326 8.31732C86.2326 7.3095 85.3944 6.49268 84.3604 6.49268C83.3263 6.49268 82.4883 7.3095 82.4883 8.31732C82.4883 9.32513 83.3263 10.1422 84.3604 10.1422Z" fill="#6B8CCE" fill-opacity="0.5"></path>
    <path fill-rule="evenodd" clip-rule="evenodd" d="M61.4745 18.6416C61.4745 20.2637 60.113 21.3435 58.4487 21.3435C56.7843 21.3435 55.4227 20.2637 55.4227 18.6416V16.3267C55.4227 14.7045 56.7843 13.6247 58.4487 13.6247C60.113 13.6247 61.4745 14.7045 61.4745 16.3267V18.6416ZM58.4487 10.681C54.9298 10.681 52.0508 13.1343 52.0508 16.5639V18.4189C52.0508 21.8485 54.9298 24.2873 58.4487 24.2873C61.9673 24.2873 64.8466 21.8485 64.8466 18.4189V16.5639C64.8466 13.1343 61.9673 10.681 58.4487 10.681Z" fill="#6B8CCE" fill-opacity="0.5"></path>
    <path fill-rule="evenodd" clip-rule="evenodd" d="M76.7013 18.6416C76.7013 20.2639 75.3396 21.3437 73.6752 21.3437C72.0111 21.3437 70.6492 20.2639 70.6492 18.6416V16.3269C70.6492 14.7046 72.0111 13.6248 73.6752 13.6248C75.3396 13.6248 76.7013 14.7046 76.7013 16.3269V18.6416ZM73.6752 10.6811C72.5754 10.6811 71.5385 10.9208 70.6321 11.355V7.39073C70.6321 6.88724 70.2133 6.47925 69.697 6.47925H67.2773V18.4191C67.2773 21.8488 70.1565 24.2875 73.6752 24.2875C77.1941 24.2875 80.0731 21.8488 80.0731 18.4191V16.5641C80.0731 13.1345 77.1941 10.6811 73.6752 10.6811Z" fill="#6B8CCE" fill-opacity="0.5"></path>
    <path fill-rule="evenodd" clip-rule="evenodd" d="M143.592 18.6981C143.592 20.3035 142.245 21.3723 140.598 21.3723C138.95 21.3723 137.602 20.3035 137.602 18.6981V16.407C137.602 14.8017 138.95 13.733 140.598 13.733C142.245 13.733 143.592 14.8017 143.592 16.407V18.6981ZM140.598 10.8196C139.51 10.8196 138.482 11.0565 137.586 11.4861V7.39374C137.586 6.89565 137.172 6.49182 136.66 6.49182H134.266V18.4779C134.266 21.8722 137.115 24.2856 140.598 24.2856C144.08 24.2856 146.929 21.8722 146.929 18.4779V16.6417C146.929 13.2475 144.08 10.8196 140.598 10.8196Z" fill="#6B8CCE" fill-opacity="0.5"></path>
    <path fill-rule="evenodd" clip-rule="evenodd" d="M170.473 24.2246V22.1715C170.473 21.6855 170.069 21.292 169.571 21.2937C169.066 21.2954 168.433 21.297 167.899 21.297C166.536 21.297 166.599 20.6329 166.599 18.9111V7.38446C166.599 6.89949 166.196 6.50647 165.699 6.50647H163.242V19.3047C163.242 22.404 164.063 24.2246 167.495 24.2246C168.821 24.2246 169.783 24.1879 170.473 24.2248V24.2246Z" fill="#6B8CCE" fill-opacity="0.5"></path>
    <path fill-rule="evenodd" clip-rule="evenodd" d="M106.179 13.6533H99.6874V15.3772C99.6874 15.8955 100.118 16.3156 100.65 16.3156H103.733V17.8398C103.733 18.9643 103.445 19.7942 102.85 20.3791C102.119 21.1147 101.107 21.5034 99.9251 21.5034C98.8598 21.5034 97.8456 21.1439 97.2129 20.542C96.3333 19.7016 96.1437 18.7891 96.1437 15.4018C96.1437 12.0339 96.3333 11.1255 97.2125 10.286C97.8616 9.66866 99.1274 9.20159 100.177 9.20159C103.725 9.20159 104.917 10.4291 105.806 11.5468H105.923V9.04742C105.923 8.67791 105.742 8.33255 105.445 8.10181C103.959 6.94212 102.477 6.51831 99.9251 6.51831C97.8641 6.51831 96.1018 7.14954 94.6876 8.39434C92.7347 10.1131 92.7349 12.0524 92.7354 15.2651V15.5385C92.7349 18.7512 92.7347 20.6903 94.6876 22.409C96.0822 23.6368 97.8935 24.2855 99.9251 24.2855C102.059 24.2855 103.938 23.5854 105.357 22.2612L105.358 22.2607C106.625 21.0748 107.141 18.8038 107.141 16.4423V14.5915C107.141 14.0734 106.71 13.6533 106.179 13.6533Z" fill="#6B8CCE" fill-opacity="0.5"></path>
    <path fill-rule="evenodd" clip-rule="evenodd" d="M116.756 24.2246V22.1715C116.756 21.6855 116.352 21.292 115.853 21.2937C115.349 21.2954 114.716 21.297 114.181 21.297C112.818 21.297 112.882 20.6329 112.882 18.9111V7.38446C112.882 6.89949 112.479 6.50647 111.981 6.50647H109.525V19.3047C109.525 22.404 110.345 24.2246 113.777 24.2246C115.104 24.2246 116.066 24.1879 116.755 24.2248L116.756 24.2246Z" fill="#6B8CCE" fill-opacity="0.5"></path>
    <path fill-rule="evenodd" clip-rule="evenodd" d="M128.504 18.698C128.504 20.3034 127.157 21.3722 125.51 21.3722C123.863 21.3722 122.516 20.3034 122.516 18.698V16.407C122.516 14.8017 123.863 13.7329 125.51 13.7329C127.157 13.7329 128.504 14.8017 128.504 16.407V18.698ZM125.51 10.8195C122.028 10.8195 119.178 13.2475 119.178 16.6417V18.4777C119.178 21.8722 122.028 24.2855 125.51 24.2855C128.993 24.2855 131.842 21.8722 131.842 18.4777V16.6417C131.842 13.2475 128.993 10.8195 125.51 10.8195Z" fill="#6B8CCE" fill-opacity="0.5"></path>
    <path fill-rule="evenodd" clip-rule="evenodd" d="M157.521 18.1901V21.569C157.263 21.6178 156.977 21.6567 156.667 21.6844C155.907 21.7541 155.226 21.7668 154.436 21.6967C154.127 21.6694 153.84 21.5925 153.587 21.4697C153.341 21.3505 153.14 21.1811 152.973 20.9514C152.815 20.7339 152.735 20.4124 152.735 19.9961C152.735 19.3476 152.971 18.8832 153.46 18.5759C153.98 18.2486 154.767 18.0824 155.801 18.0824C156.079 18.0824 156.419 18.098 156.821 18.129C157.083 18.1494 157.318 18.1698 157.521 18.1901ZM159.317 11.9639C158.322 11.1894 156.867 10.7968 154.992 10.7968C154.296 10.7968 153.563 10.8463 152.815 10.9436C152.216 11.0217 151.366 11.1334 150.777 11.2657C150.539 11.3194 150.494 11.5023 150.494 11.7213V13.4679C150.494 13.7792 150.498 14.0624 150.836 13.982C151.467 13.8322 152.69 13.568 153.023 13.5146C153.548 13.4303 154.121 13.3878 154.724 13.3878C155.663 13.3878 156.378 13.5516 156.851 13.8734C157.296 14.1768 157.521 14.7542 157.521 15.5893V15.6904C157.354 15.6754 157.171 15.661 156.971 15.648C156.596 15.6233 156.117 15.6109 155.531 15.6109C154.733 15.6109 153.959 15.6992 153.233 15.8732C152.495 16.0505 151.832 16.3243 151.261 16.6878C150.681 17.0586 150.215 17.529 149.877 18.0874C149.537 18.6497 149.364 19.3084 149.364 20.0441C149.364 20.7914 149.512 21.442 149.803 21.9773C150.096 22.5175 150.519 22.9679 151.058 23.3155C151.587 23.6588 152.238 23.9097 152.99 24.0625C153.72 24.2106 154.549 24.2857 155.451 24.2857C156.107 24.2857 160.837 24.2208 160.837 22.0269C160.837 19.4846 160.837 15.6847 160.837 15.6847C160.837 14.0018 160.326 12.7499 159.317 11.9639Z" fill="#6B8CCE" fill-opacity="0.5"></path>
    <path fill-rule="evenodd" clip-rule="evenodd" d="M11.6649 7.72967C11.6649 4.1865 9.89401 1.13955 8.54707 0.147337C8.54151 0.144216 8.44396 0.0907463 8.45229 0.232431L8.45037 0.2368C8.33851 7.07784 4.75279 8.93201 2.78148 11.4297C-1.76781 17.1936 2.46299 23.5131 6.77128 24.6811C9.1819 25.3346 6.21457 23.5248 5.83248 19.7019C5.37034 15.0814 11.6649 11.5546 11.6649 7.72967Z" fill="#6B8CCE" fill-opacity="0.5"></path>
    <path fill-rule="evenodd" clip-rule="evenodd" d="M13.7319 10.059C13.7043 10.0407 13.665 10.0282 13.638 10.0719C13.5639 10.933 12.6613 12.7751 11.5174 14.4666C7.63755 20.2041 9.84858 22.97 11.0918 24.4555C11.8137 25.3178 11.0918 24.4555 12.8962 23.5742C13.0375 23.5052 16.4168 21.658 16.7827 17.4495C17.137 13.3741 14.6256 10.8053 13.7319 10.059Z" fill="#6B8CCE" fill-opacity="0.5"></path>
  </symbol>
</svg>